<svg xmlns="http://www.w3.org/2000/svg" width="802" height="140" fill="none" viewBox="0 0 802 140"><path fill="#0286EB" d="M256.2 42.801q.325-1.194 1.41-1.738a5.04 5.04 0 0 1 2.281-.542 550 550 0 0 1 16.444-.434q8.737-.11 19.158-.109 12.48 0 20.404.215c5.284.148 8.612.58 9.986 1.304q1.085.544 2.225 1.901 1.14 1.358 2.116 3.203a22.6 22.6 0 0 1 1.628 3.965q.654 2.117.653 4.181 0 1.087-.869 1.846-.868.761-2.063.652a201 201 0 0 0-5.807-.164q-3.419-.053-7.434-.162a558 558 0 0 0-8.413-.163q-4.395-.054-8.737-.054-6.512 0-12.212.054-5.697.054-8.737.272-2.171.108-2.983.597-.815.49-1.358 2.118l-3.147 10.643q-.436 1.41.272 1.9.704.49 2.332.488h48.193q1.193 0 1.899.544t.706 1.737q0 1.304-.814 3.041a22 22 0 0 1-2.063 3.476 26 26 0 0 1-2.713 3.203q-1.467 1.467-2.876 2.227-1.629.87-3.854 1.14-2.225.272-5.373.272h-37.555q-1.845 0-2.714.76-.867.76-1.302 2.063l-4.886 16.726q-.54 1.844-1.193 2.985-.65 1.14-1.573 1.737t-2.334.815q-1.41.217-3.364.217h-13.676q-1.195 0-1.467-.597-.27-.597.163-1.465zm93.888 68.962q-.435 1.956-2.497 1.955h-10.096q-2.929 0-4.829-.436-1.9-.433-2.821-1.627-.923-1.196-.923-3.259t.976-5.321l19.539-67.876q.65-1.846 2.821-1.846h18.56q1.195 0 1.357.544.163.542-.271 1.518zm67.187 16.397q-2.496 3.803-4.884 6.137-2.388 2.335-4.994 3.584-2.603 1.25-5.643 1.683-3.039.435-6.838.436h-4.775q-1.738 0-2.226-1.086t.598-2.608l11.722-17.049q.759-1.304 1.356-2.39.595-1.085.814-1.738.219-.542-.163-.76-.38-.217-1.03-.216h-4.125q-11.18 0-15.304-3.91-1.846-1.846-3.148-5.864-1.303-4.02-1.846-12.38l-2.387-31.28q-.216-2.063.814-2.876 1.03-.815 3.094-.815h6.837q3.365 0 5.483.542 2.116.546 3.417 1.847 1.303 1.303 1.845 3.475.543 2.173.76 5.43l1.194 18.245q.217 4.78.543 6.734.327 1.955 1.085 2.714 1.629 1.412 6.622 1.412 2.713 0 4.179-.325 1.464-.326 2.334-.87.869-.542 2.224-2.118 1.357-1.573 3.962-5.483l14.22-21.611q1.953-3.042 3.744-4.996 1.79-1.955 3.908-3.096 2.115-1.14 4.721-1.52 2.604-.38 6.077-.38h8.033q1.519 0 2.388.977.868.978-.327 2.824z"/><path fill="#7BAFD4" d="M488.695 114.478q-6.84 0-11.505-.163-4.668-.163-7.869-.597-3.204-.433-5.102-1.086-1.9-.652-3.093-1.521t-2.225-2.551a23 23 0 0 1-1.793-3.639 29 29 0 0 1-1.193-3.802q-.433-1.846-.433-3.04 0-.867.651-1.52.65-.653 1.844-.436 4.45.543 11.616 1.086 7.162.545 17.256.544 9.663 0 15.251-.976 5.587-.98 8.413-2.824 2.71-1.846 4.937-5.432 2.225-3.583 4.072-9.989l9.441-33.016q1.088-3.367 2.55-4.398 1.467-1.032 4.941-1.031h14.76q1.954-.001 1.195 2.062l-10.094 35.296q-1.63 5.866-3.311 10.479-1.683 4.618-3.529 8.146-1.844 3.531-3.905 6.135a25.3 25.3 0 0 1-4.668 4.562q-2.39 1.847-5.644 3.258-3.257 1.413-7.815 2.389-4.56.979-10.692 1.521-6.133.543-14.056.543m128.947-3.584q-.759 1.847-3.04 2.063-6.186.544-13.784 1.032-7.596.489-18.452.489-7.924 0-13.242-.381-5.319-.38-8.737-1.03-3.42-.653-5.32-1.63-1.898-.978-2.875-2.172-1.737-1.847-2.117-5.701-.379-3.857 1.139-9.611 1.195-3.801 2.931-6.68t4.341-4.398q1.412-.76 5.861-1.358 4.451-.597 10.748-1.086a338 338 0 0 1 13.728-.76 408 408 0 0 1 14.817-.27q1.846 0 2.388-1.522.76-2.28.977-3.746t-.434-2.227q-.543-.87-4.721-1.14-4.178-.272-11.126-.272-9.66-.001-16.389.436-6.731.433-10.53.758-1.302.11-1.898-.542-.598-.652-.598-1.628 0-.871.814-2.28a25 25 0 0 1 2.008-2.934 20.7 20.7 0 0 1 2.768-2.877q1.574-1.358 3.203-2.12 2.931-1.41 9.876-2.334 6.947-.922 18.669-.922 12.592 0 19.048 1.357 6.46 1.358 8.413 3.856.869 1.195 1.465 2.822.597 1.63.543 4.29-.053 2.662-.76 6.735-.705 4.072-2.442 10.044zm-15.521-19.005q.434-1.194-.218-1.412-.651-.216-1.736-.217-2.605-.001-6.675.109-4.072.108-8.086.326-4.018.216-7.11.542t-3.853.761q-1.52.65-2.387 3.8c-.581 1.737-.543 2.933.106 3.585q.654.76 3.962 1.031 3.312.273 8.631.273 4.992 0 8.954-.273 3.96-.272 4.722-.597.867-.435 1.302-.978t1.085-2.388z"/><path fill="#fff" d="M683.31 128.16q-2.497 3.803-4.886 6.137-2.388 2.335-4.992 3.584t-5.643 1.683q-3.041.435-6.84.436h-4.775q-1.737 0-2.226-1.086-.487-1.087.598-2.608l11.722-17.049q.759-1.304 1.356-2.39.598-1.085.816-1.738.216-.542-.165-.76-.379-.217-1.029-.216h-4.126q-11.178 0-15.304-3.91-1.845-1.846-3.148-5.864-1.302-4.02-1.844-12.38l-2.389-31.28q-.216-2.063.814-2.876 1.031-.815 3.094-.815h6.837q3.366 0 5.483.542 2.115.546 3.418 1.847 1.303 1.303 1.845 3.475.543 2.173.76 5.43l1.195 18.245q.217 4.78.542 6.734.326 1.955 1.084 2.714 1.63 1.412 6.622 1.412 2.714 0 4.179-.325 1.465-.326 2.334-.87.869-.542 2.224-2.118 1.358-1.573 3.962-5.483l14.22-21.611q1.954-3.042 3.744-4.996 1.792-1.955 3.908-3.096 2.116-1.14 4.721-1.52t6.079-.38h8.032q1.52 0 2.388.977.867.978-.326 2.824z"/><path fill="#7BAFD4" d="M683.31 128.16q-2.497 3.803-4.886 6.137-2.388 2.335-4.992 3.584t-5.643 1.683q-3.041.435-6.84.436h-4.775q-1.737 0-2.226-1.086-.487-1.087.598-2.608l11.722-17.049q.759-1.304 1.356-2.39.598-1.085.816-1.738.216-.542-.165-.76-.379-.217-1.029-.216h-4.126q-11.178 0-15.304-3.91-1.845-1.846-3.148-5.864-1.302-4.02-1.844-12.38l-2.389-31.28q-.216-2.063.814-2.876 1.031-.815 3.094-.815h6.837q3.366 0 5.483.542 2.115.546 3.418 1.847 1.303 1.303 1.845 3.475.543 2.173.76 5.43l1.195 18.245q.217 4.78.542 6.734.326 1.955 1.084 2.714 1.63 1.412 6.622 1.412 2.714 0 4.179-.325 1.465-.326 2.334-.87.869-.542 2.224-2.118 1.358-1.573 3.962-5.483l14.22-21.611q1.954-3.042 3.744-4.996 1.792-1.955 3.908-3.096 2.116-1.14 4.721-1.52t6.079-.38h8.032q1.52 0 2.388.977.867.978-.326 2.824zm108.107-17.266q-.76 1.847-3.039 2.063-6.187.544-13.785 1.032-7.598.489-18.452.489-7.922 0-13.242-.381-5.319-.38-8.737-1.03-3.42-.653-5.318-1.63-1.9-.978-2.877-2.172-1.737-1.847-2.117-5.701-.379-3.857 1.14-9.611 1.194-3.801 2.932-6.68 1.734-2.878 4.339-4.398 1.413-.76 5.863-1.358 4.45-.597 10.745-1.086 6.296-.487 13.731-.76 7.434-.27 14.816-.27 1.845 0 2.389-1.522.758-2.28.975-3.746t-.434-2.227q-.542-.87-4.721-1.14-4.18-.272-11.126-.272-9.662-.001-16.389.436-6.73.433-10.529.758-1.303.11-1.901-.542-.595-.652-.596-1.628 0-.871.814-2.28a25 25 0 0 1 2.008-2.934 21 21 0 0 1 2.768-2.877q1.574-1.358 3.203-2.12 2.93-1.41 9.877-2.334 6.946-.922 18.669-.922 12.589 0 19.049 1.357 6.457 1.358 8.411 3.856.87 1.195 1.465 2.822.598 1.63.543 4.29-.054 2.662-.759 6.735-.707 4.072-2.442 10.044zm-15.521-19.005q.434-1.194-.218-1.412-.65-.216-1.736-.217-2.605-.001-6.675.109-4.072.108-8.086.326a141 141 0 0 0-7.11.542q-3.094.326-3.853.761-1.52.65-2.387 3.8-.868 2.606.108 3.585.65.76 3.962 1.031 3.31.273 8.629.273 4.993 0 8.954-.273 3.961-.272 4.721-.597.87-.435 1.303-.978t1.085-2.388z"/><path fill="url(#a)" fill-rule="evenodd" d="M83.283 80.016c-10.165-6.26-19.253-18.66-28.859-29.735a20.9 20.9 0 0 0-15.786-7.155c-8.344.004-16.965-.026-23.354-.028-2.166.031-4.168 1.123-5.315 2.972-1.11 1.86-1.148 4.127-.247 6.077 4.248 9.355 8.565 19.665 13.98 30.431.066.058.083.145.11.193a1.4 1.4 0 0 0-.1-.23c8.514 17.575 35.565 8.828 59.571-2.525" clip-rule="evenodd"/><path fill="url(#b)" fill-rule="evenodd" d="M62.765 126.515c-21.087-6.796-35.882-37.296-40.952-47.806 13.045 21.871 40.536 11.803 67.208-1.452 20.73-10.299 60.672-50.451 71.546-61.436C167.902 8.419 181.112 0 194.712 0h47.495a6.18 6.18 0 0 1 5.678 3.74 6.18 6.18 0 0 1-1.195 6.69C181.726 79.073 122.064 145.629 62.765 126.516" clip-rule="evenodd"/><defs><linearGradient id="a" x1="31.69" x2="66.59" y1="46.27" y2="112.776" gradientUnits="userSpaceOnUse"><stop stop-color="#BEBBBB"/><stop offset="1" stop-color="#2A2A2A"/></linearGradient><linearGradient id="b" x1="200.436" x2="71.597" y1="16.698" y2="127.114" gradientUnits="userSpaceOnUse"><stop stop-color="#008AD8"/><stop offset=".51" stop-color="#7D55C7"/><stop offset="1" stop-color="#EF3340"/></linearGradient></defs></svg>